<?xml version="1.0" encoding="UTF-8" standalone="no"?>
<!-- Created with Inkscape (http://www.inkscape.org/) -->

<svg
   width="1500"
   height="512"
   viewBox="0 0 1500 512"
   version="1.1"
   id="svg1"
   xml:space="preserve"
   sodipodi:docname="logo.svg"
   inkscape:version="1.3.2 (091e20e, 2023-11-25, custom)"
   xmlns:inkscape="http://www.inkscape.org/namespaces/inkscape"
   xmlns:sodipodi="http://sodipodi.sourceforge.net/DTD/sodipodi-0.dtd"
   xmlns="http://www.w3.org/2000/svg"
   xmlns:svg="http://www.w3.org/2000/svg"><sodipodi:namedview
     id="namedview1"
     pagecolor="#505050"
     bordercolor="#eeeeee"
     borderopacity="1"
     inkscape:showpageshadow="0"
     inkscape:pageopacity="0"
     inkscape:pagecheckerboard="0"
     inkscape:deskcolor="#505050"
     inkscape:document-units="px"
     inkscape:zoom="0.85547295"
     inkscape:cx="639.41238"
     inkscape:cy="305.67886"
     inkscape:window-width="1920"
     inkscape:window-height="1009"
     inkscape:window-x="1912"
     inkscape:window-y="-8"
     inkscape:window-maximized="1"
     inkscape:current-layer="layer1" /><defs
     id="defs1"><rect
       x="-86.501858"
       y="-88.839746"
       width="1562.8782"
       height="730.59002"
       id="rect6" /><rect
       x="21.077492"
       y="27.276752"
       width="152.08856"
       height="26.036901"
       id="rect5" /><rect
       x="22.317343"
       y="27.276752"
       width="146.71587"
       height="22.730627"
       id="rect3" /><rect
       x="23.47212"
       y="27.269081"
       width="146.70076"
       height="23.47212"
       id="rect19" /><linearGradient
       id="swatch8"
       inkscape:swatch="solid"><stop
         style="stop-color:#540004;stop-opacity:1;"
         offset="0"
         id="stop8" /></linearGradient><filter
       style="color-interpolation-filters:sRGB"
       inkscape:label="Drop Shadow"
       id="filter15"
       x="-0.1535971"
       y="-0.85267913"
       width="1.4177952"
       height="3.3193486"><feFlood
         result="flood"
         in="SourceGraphic"
         flood-opacity="0.498039"
         flood-color="rgb(0,0,0)"
         id="feFlood14" /><feGaussianBlur
         result="blur"
         in="SourceGraphic"
         stdDeviation="3.000000"
         id="feGaussianBlur14" /><feOffset
         result="offset"
         in="blur"
         dx="6.000000"
         dy="6.000000"
         id="feOffset14" /><feComposite
         result="comp1"
         operator="in"
         in="flood"
         in2="offset"
         id="feComposite14" /><feComposite
         result="comp2"
         operator="atop"
         in="comp1"
         in2="comp1"
         id="feComposite15" /></filter></defs><g
     inkscape:label="Layer 1"
     inkscape:groupmode="layer"
     id="layer1"><text
       xml:space="preserve"
       style="font-style:normal;font-variant:normal;font-weight:normal;font-stretch:normal;font-size:2.82222px;font-family:'Permanent Marker';-inkscape-font-specification:'Permanent Marker';fill:#00000f;fill-opacity:1;stroke-width:0.264583"
       x="3.3247936"
       y="25.593176"
       id="text9"><tspan
         sodipodi:role="line"
         id="tspan9"
         style="font-size:2.82222px;stroke-width:0.264583"
         x="3.3247936"
         y="25.593176" /></text><rect
       style="opacity:0.861314;fill:#000080;fill-opacity:0;stroke:#800080;stroke-width:7.93354"
       id="rect1"
       width="1186.3928"
       height="230.59879"
       x="27.503496"
       y="84.12133"
       ry="1.1302981"
       inkscape:label="rect1" /><path
       d="m 178.33295,240.80249 h -44.0625 L 58.895448,116.39624 H 102.6767 Z m -119.437502,0 V 128.20874 l 36.09375,59.15625 v 53.4375 z M 178.33295,116.39624 v 112.59375 l -36.09375,-59.4375 v -53.15625 z m 61.3125,124.40625 H 223.0517 l -24.84375,-24.84375 v -49.875 l 24.84375,-24.84375 h 16.59375 z m 6.5625,-39.9375 v -17.34375 h 21.84375 v -17.4375 h -21.84375 v -24.84375 h 35.15625 l 24.84375,24.84375 v 34.78125 z m 0,39.9375 v -23.25 h 55.6875 v 10.78125 l -12.375,12.46875 z m 119.0625,-137.53125 v 137.53125 h -41.4375 V 103.27124 Z m 25.125,62.8125 h -18.5625 v -12.5625 l 12.1875,-12.28125 h 22.6875 l 24.9375,24.84375 v 49.875 l -24.9375,24.84375 h -34.875 v -23.25 h 18.5625 z m 166.125,-24.84375 v 99.5625 h -41.4375 v -99.5625 z m -66.46875,74.71875 h 18.46875 v 12.375 l -12,12.46875 H 473.5517 l -24.9375,-24.84375 v -74.71875 h 41.4375 z m 145.96875,24.84375 h -36.75 l -23.25,-23.25 V 103.27124 h 41.4375 v 112.6875 h 18.5625 z m 76.21875,0 v -74.71875 h -58.96875 v -12.375 l 12.46875,-12.46875 h 62.15625 l 24.84375,24.84375 v 74.71875 z m -6.5625,-57.9375 v 17.25 h -21.375 v 17.4375 h 21.375 v 10.96875 l -12.375,12.28125 h -31.6875 l -16.6875,-16.40625 v -24.9375 l 16.6875,-16.59375 z m 67.03125,-66.46875 h 44.0625 l 33.37504,55.3125 26.25,-45 v 62.625 l -29.9063,51.46875 z M 882.48919,240.80249 V 116.39624 h 41.4375 v 124.40625 z m -109.87499,0 v -112.875 l 38.71875,64.96875 v 47.90625 z m 283.0313,-24.84375 -24.8438,24.84375 h -27.75 v -23.25 h 10.3125 v -51.46875 h -10.3125 v -24.84375 h 27.75 l 24.8438,24.84375 z m -69.93751,1.59375 h 10.7812 v 23.25 h -27.8437 l -24.8438,-24.84375 v -49.875 l 24.8438,-24.84375 h 27.8437 v 24.84375 h -10.7812 z M 1182.8642,103.27124 v 137.53125 h -41.4375 V 103.27124 Z m -67.9687,114.28125 h 19.9687 v 13.40625 l -9.8437,9.84375 h -29.1563 l -22.4062,-22.40625 v -54.75 l 22.4062,-22.40625 h 39 v 24.84375 h -19.9687 z"
       id="text1"
       style="font-size:192px;line-height:0;font-family:'Black Ops One';-inkscape-font-specification:'Black Ops One';opacity:0.861314;fill:#000080;fill-opacity:0;stroke:#000080;stroke-width:5.503"
       aria-label="NebulaMod" /><path
       d="M 52.269379,417.41696 H 40.029803 L 19.092316,382.85969 h 12.161451 z m -33.177063,0 v -31.27602 l 10.026035,16.43228 v 14.84374 z m 33.177063,-34.55727 v 31.27602 l -10.026035,-16.5104 v -14.76562 z m 17.604156,20.36457 v 14.1927 h -11.51041 v -34.55727 h 11.51041 v 13.69791 h 11.015618 v 6.66666 z m 1.822915,-13.67187 v -6.6927 h 17.994781 v 9.99999 H 78.857904 v -3.30729 z m 0,27.86457 v -6.90104 h 6.484371 v -3.46354 h 11.51041 v 10.36458 z m 45.3906,-27.65623 h -8.54166 v -6.90104 h 13.35937 l 6.92708,6.90104 v 7.03124 l -3.46354,3.46354 3.46354,3.46354 v 6.79687 l -6.92708,6.90104 h -13.35937 v -6.90104 h 8.54166 v -7.36978 h -8.54166 v -6.01562 h 8.54166 z m -21.874983,-6.90104 h 11.510413 v 34.55727 H 95.212067 Z m 72.031203,27.65623 -6.90104,6.90104 h -8.8802 v -6.90104 h 4.27083 v -27.65623 h 11.51041 z m -21.84894,0 h 4.24479 v 6.90104 h -8.85417 l -6.92708,-6.90104 v -27.65623 h 11.53646 z m 27.68227,6.90104 v -34.55727 h 11.51041 v 34.55727 z m 13.33332,0 v -6.90104 h 5.70313 v -4.37499 h 10.4427 v 11.27603 z m 42.34374,-3.77604 h -11.30208 l 2.39583,-6.84895 h 6.25 l -9.24479,-23.93228 h 11.22396 l 13.77603,34.55727 h -11.64062 z m -14.37499,3.77604 h -11.11979 l 12.34375,-32.99477 5.10416,13.72395 z m 30.78122,-34.55727 h 12.23958 l 9.27083,15.36457 7.29166,-12.49999 v 17.39583 l -8.30729,14.29686 z m 30.49478,34.55727 v -34.55727 h 11.51041 v 34.55727 z m -30.52082,0 v -31.35415 l 10.7552,18.04687 v 13.30728 z m 58.85413,-7.03124 h 4.32291 v 7.03124 h -8.85416 l -7.0052,-6.90104 v -20.75519 l 7.0052,-6.90104 h 8.85416 v 7.0052 h -4.32291 z m 10.54687,-20.52083 h -4.40104 v -7.0052 h 8.93229 l 6.97916,6.90104 v 20.75519 l -6.97916,6.90104 h -8.93229 v -7.03124 h 4.40104 z m 30.15623,27.55207 v -6.90104 h 8.54166 v -20.75519 h -8.54166 v -6.90104 h 13.15104 l 6.92708,6.90104 v 20.75519 l -6.92708,6.90104 z m -13.33332,-34.55727 h 11.51041 v 34.55727 h -11.51041 z m 49.08851,6.90104 h 11.43229 l 9.84374,27.65623 h -10.93749 z m 22.4479,26.11977 -5.15624,-14.6354 3.72395,-11.48437 h 10.75521 z m 45.18228,-5.36458 -6.90104,6.90104 h -13.22916 v -6.90104 h 8.61979 v -27.65623 h 4.60937 l 6.90104,6.90104 z m -21.90103,6.90104 h -4.58333 l -6.92708,-6.90104 v -20.75519 l 6.92708,-6.90104 h 13.20312 v 6.90104 h -8.61979 z m 28.54165,-8.04687 h 11.51041 v 8.04687 h -11.51041 z m 19.03645,-23.04686 3.4375,-3.46354 h 13.82811 v 26.06769 h -11.51041 v -19.16665 h -5.7552 z m 0,24.19269 h 23.02082 v 6.90104 h -23.02082 z m 30.5208,-1.14583 h 11.51041 v 8.04687 h -11.51041 z m 51.56247,1.14583 -6.90103,6.90104 H 535.7066 v -6.90104 h 8.61978 v -27.65623 h 4.60938 l 6.90103,6.90104 z m -21.90103,6.90104 h -4.58333 l -6.92708,-6.90104 v -20.75519 l 6.92708,-6.90104 h 13.20312 v 6.90104 h -8.61979 z m 29.55725,-19.27082 h 22.99478 v 6.22395 h -22.99478 z m 52.23959,19.27082 v -12.9427 h -14.94791 l -6.92707,-6.92708 v -7.78645 l 6.92707,-6.90104 h 3.90625 v 12.26562 h 15.88541 l 6.6927,6.92708 v 8.46353 l -6.90103,6.90104 z m -9.21874,-28.33331 v -6.22396 h 13.82811 l 5.98958,6.01562 v 3.67187 H 615.7326 v -3.46353 z m -12.65624,17.96873 h 11.51041 v 4.11459 h 8.54166 v 6.24999 H 599.6649 l -5.80728,-6.90104 z m 72.16139,10.36458 h -12.23957 l -20.93749,-34.55727 h 12.16145 z m -33.17706,0 v -31.27602 l 10.02604,16.43228 v 14.84374 z m 33.17706,-34.55727 v 31.27602 l -10.02603,-16.5104 v -14.76562 z m 28.77603,30.78123 h -11.30208 l 2.39584,-6.84895 h 6.24999 l -9.24478,-23.93228 h 11.22395 l 13.77603,34.55727 h -11.64062 z m -14.37499,3.77604 h -11.11979 l 12.34375,-32.99477 5.10416,13.72395 z m 30.70313,0 v -34.55727 h 11.30208 v 34.55727 z m 13.12499,-27.65623 v -6.90104 h 12.91666 l 6.90104,6.90104 v 11.84895 l -6.90104,6.92708 h -12.91666 v -6.92708 h 8.35937 v -11.84895 z m 46.24994,27.65623 v -12.9427 H 755.5502 l -6.92708,-6.92708 v -7.78645 l 6.92708,-6.90104 h 3.90625 v 12.26562 h 15.8854 l 6.69271,6.92708 v 8.46353 l -6.90104,6.90104 z m -9.21875,-28.33331 v -6.22396 h 13.82812 l 5.98958,6.01562 v 3.67187 h -10.59895 v -3.46353 z m -12.65624,17.96873 h 11.51041 v 4.11459 h 8.54166 v 6.24999 h -14.24478 l -5.80729,-6.90104 z m 60.78126,-24.19269 h 11.61457 v 34.55727 H 809.4825 v -14.03645 h -8.54166 v -6.92708 h 8.46354 z m -10.28646,34.55727 h -11.51041 v -34.55727 h 11.51041 z m 38.69788,-7.03124 h 4.32291 v 7.03124 h -8.85416 l -7.0052,-6.90104 v -20.75519 l 7.0052,-6.90104 h 8.85416 v 7.0052 h -4.32291 z m 10.54687,-20.52083 h -4.40104 v -7.0052 h 8.93229 l 6.97916,6.90104 v 20.75519 l -6.97916,6.90104 h -8.93229 v -7.03124 h 4.40104 z m 24.14061,2.31771 h 11.97916 v 25.23436 h -11.97916 z m -9.01041,-9.32291 h 29.99998 v 7.52604 h -29.99998 z"
       id="text2"
       style="font-size:53.3333px;line-height:0;font-family:'Black Ops One';-inkscape-font-specification:'Black Ops One';opacity:0.861314;fill:#ff00ff;fill-opacity:0;stroke:#00ffff;stroke-width:5.503"
       aria-label="NEBULAMOD v0.1.0-SNAPSHOT &#10;" /><path
       d="m 36.246386,489.78754 h -4.58333 l -6.92708,-6.90104 v -20.7552 l 6.92708,-6.90103 h 4.58333 z m 1.822916,-27.65624 v -6.90103 h 12.265617 l 6.901038,6.90103 v 6.95312 h -11.51041 v -6.95312 z m 0,27.65624 v -6.90104 h 7.656245 v -5.05208 h 11.51041 v 5.05208 l -6.901038,6.90104 z m 42.60414,-20.7552 h -4.89583 v -3.02083 l 3.854164,-3.88021 h 6.979163 l 5.598955,6.45833 v 7.16146 H 80.673442 Z m -18.255197,20.7552 V 462.1313 h 11.51041 v 27.65624 z m 44.609345,0 h -4.60937 l -6.901037,-6.90104 v -13.85416 l 6.901037,-6.90104 h 4.60937 z m 1.82292,-11.09375 v -4.8177 h 6.0677 v -4.84375 h -6.0677 v -6.90104 h 9.76562 l 6.90104,6.90104 v 9.66145 z m 0,11.09375 v -6.45833 h 15.46874 v 2.99479 l -3.4375,3.46354 z m 51.71872,-38.20311 v 38.20311 h -11.51041 v -38.20311 z m -18.8802,31.74478 h 5.54687 v 3.72395 l -2.73437,2.73438 h -8.09895 l -6.22396,-6.22396 v -15.20832 l 6.22396,-6.22396 h 10.83332 v 6.90104 h -5.54687 z m 24.32291,-21.19791 h 11.53645 v 27.65624 h -11.53645 z m 0,-10.78124 h 11.53645 v 7.34375 h -11.53645 z m 28.80205,31.53644 h 7.60416 v 6.90104 h -12.18749 l -6.92708,-6.90104 v -13.85416 h -2.29166 v -6.90104 h 2.29166 v -2.99479 l 11.51041,-3.90624 z m 1.82292,-13.85416 v -6.90104 h 6.19791 v 6.90104 z m 16.19792,-6.90104 h 4.60937 v 9.76562 h 13.12499 l 5.98958,6.04167 v 5.39062 l -6.43228,6.45833 h -5.07813 v -10.44271 h -12.44791 l -5.98958,-5.7552 v -5.26041 z m 5.28645,22.57811 h 5.10417 v 5.07813 l -11.84895,-0.026 -4.79167,-5.67707 v -2.21355 h 11.53645 z m 6.92708,-17.49998 h -5.78124 v -5.07813 h 12.23957 l 4.11458,4.11458 v 3.125 h -10.57291 z m 17.13541,-5.07813 h 11.5104 v 8.04687 h -11.5104 z m 0,19.60937 h 11.5104 v 8.04687 h -11.5104 z m 54.06245,-19.60937 h -8.54166 v -6.90103 h 13.35937 l 6.92708,6.90103 v 7.03125 l -3.46354,3.46354 3.46354,3.46354 v 6.79687 l -6.92708,6.90104 h -13.35937 v -6.90104 h 8.54166 v -7.36979 h -8.54166 v -6.01562 h 8.54166 z m -21.87499,-6.90103 h 11.51041 v 34.55727 h -11.51041 z m 56.82289,34.55727 v -20.7552 h -16.3802 v -3.4375 l 3.46354,-3.46354 h 17.26561 l 6.90104,6.90104 v 20.7552 z M 329.3712,473.6938 v 4.79166 h -5.9375 v 4.84375 h 5.9375 v 3.04687 l -3.4375,3.41146 h -8.80208 l -4.63541,-4.55729 v -6.92708 l 4.63541,-4.60937 z m 24.27082,-11.5625 h 4.60937 v 9.76562 h 13.12499 l 5.98958,6.04167 v 5.39062 l -6.43228,6.45833 h -5.07813 v -10.44271 h -12.44791 l -5.98958,-5.7552 v -5.26041 z m 5.28645,22.57811 h 5.10417 v 5.07813 l -11.84895,-0.026 -4.79167,-5.67707 v -2.21355 h 11.53645 z m 6.92708,-17.49998 h -5.78124 v -5.07813 h 12.23957 l 4.11458,4.11458 v 3.125 h -10.57291 z m 16.01563,-15.625 h 11.51041 v 38.20311 h -11.51041 z m 18.41145,17.44791 h -5.07813 v -3.48958 l 3.38542,-3.41146 h 6.30208 l 6.92708,6.90104 v 20.7552 h -11.53645 z m 27.99477,20.7552 h -4.60937 l -6.90104,-6.90104 v -13.85416 l 6.90104,-6.90104 h 4.60937 z m 1.82292,-11.09375 v -4.8177 h 6.0677 v -4.84375 h -6.0677 v -6.90104 h 9.76562 l 6.90103,6.90104 v 9.66145 z m 0,11.09375 v -6.45833 h 15.46874 v 2.99479 l -3.4375,3.46354 z m 39.81768,-20.7552 h -4.89583 v -3.02083 l 3.85417,-3.88021 h 6.97916 l 5.59895,6.45833 v 7.16146 H 469.918 Z m -18.25519,20.7552 V 462.1313 h 11.51041 v 27.65624 z"
       id="text4"
       style="font-size:53.3333px;line-height:0;font-family:'Black Ops One';-inkscape-font-specification:'Black Ops One';opacity:0.861314;fill:#00ffff;fill-opacity:0;stroke:#00ffff;stroke-width:5.503"
       aria-label="Credits: Basher" /><path
       d="m 67.292914,284.84572 3.46354,-14.5052 4.50521,16.40624 -3.72396,13.67186 h -10.4427 l -10.33854,-34.55727 h 11.45833 z m 24.42707,15.5729 h -10.98957 l -9.47917,-34.55727 h 11.61458 z m 0.10417,-34.55727 h 10.494776 l -9.374986,32.7604 -4.6875,-18.41145 z m 12.343736,27.18749 h 3.46354 V 273.2051 h -3.46354 v -7.34375 h 18.43749 v 7.34375 h -3.46354 v 19.84374 h 3.46354 v 7.36978 h -18.43749 z m 57.18746,7.36978 h -12.23957 l -20.93749,-34.55727 h 12.16145 z m -33.17706,0 V 269.1426 l 10.02603,16.43228 v 14.84374 z m 33.17706,-34.55727 v 31.27603 l -10.02603,-16.51041 v -14.76562 z m 19.42708,34.55727 v -6.90103 h 8.54166 v -20.7552 h -8.54166 v -6.90104 h 13.15103 l 6.92708,6.90104 v 20.7552 l -6.92708,6.90103 z M 167.4491,265.86135 h 11.51041 v 34.55727 H 167.4491 Z m 49.42706,27.52603 h 4.32292 v 7.03124 h -8.85417 l -7.0052,-6.90103 v -20.7552 l 7.0052,-6.90104 h 8.85417 v 7.00521 h -4.32292 z m 10.54687,-20.52082 h -4.40104 v -7.00521 h 8.93229 l 6.97916,6.90104 v 20.7552 l -6.97916,6.90103 h -8.93229 v -7.03124 h 4.40104 z m 29.63539,11.97916 3.46354,-14.5052 4.5052,16.40624 -3.72395,13.67186 H 250.8605 l -10.33853,-34.55727 h 11.45832 z m 24.42706,15.5729 h -10.98957 l -9.47916,-34.55727 h 11.61457 z m 0.10417,-34.55727 h 10.49479 l -9.375,32.7604 -4.68749,-18.41145 z m 12.86459,34.55727 v -34.55727 h 11.51041 v 34.55727 z m 13.28124,-4.89583 v -16.79686 l 8.07291,-12.83854 11.97916,-0.026 z m 20.59894,4.89583 h -12.4479 l -3.90625,-8.04687 6.82291,-10.23437 z m 1.27605,-7.36978 h 3.46354 V 273.2051 h -3.46354 v -7.34375 h 18.43749 v 7.34375 h -3.46354 v 19.84374 h 3.46354 v 7.36978 h -18.43749 z m 24.01039,7.36978 v -34.55727 h 11.51041 v 34.55727 z m 13.33333,0 v -6.90103 h 5.70312 v -4.375 h 10.4427 v 11.27603 z m 19.66145,0 v -34.55727 h 11.51041 v 34.55727 z m 13.33333,0 v -6.90103 h 5.70312 v -4.375 h 10.4427 v 11.27603 z m 21.32812,-34.55727 h 10.70312 l -1.22396,17.26562 h -8.28124 z m 24.1406,6.90104 h 4.60938 v 9.76562 h 13.12499 l 5.98958,6.04166 v 5.39062 l -6.43229,6.45833 h -5.07812 v -10.4427 h -12.44791 l -5.98958,-5.7552 v -5.26042 z m 5.28646,22.57811 h 5.10416 v 5.07812 l -11.84895,-0.026 -4.79166,-5.67708 V 292.502 h 11.53645 z m 6.92708,-17.49999 h -5.78125 v -5.07812 h 12.23958 l 4.11458,4.11458 v 3.125 h -10.57291 z m 52.03122,-5.07812 h -8.54167 v -6.90104 h 13.35937 l 6.92708,6.90104 v 7.03125 l -3.46354,3.46354 3.46354,3.46353 v 6.79688 l -6.92708,6.90103 h -13.35937 v -6.90103 h 8.54167 v -7.36979 h -8.54167 v -6.01562 h 8.54167 z m -21.87499,-6.90104 h 11.51041 v 34.55727 h -11.51041 z m 38.61975,6.90104 h 11.53645 v 27.65623 h -11.53645 z m 0,-10.78124 h 11.53645 v 7.34374 h -11.53645 z m 35.18229,17.68228 h -5.10416 v -6.90104 h 9.71353 l 6.90104,6.90104 V 303.153 l -6.90104,6.95312 h -15.18228 l -3.46354,-3.48958 v -2.55209 h 14.03645 z m -1.82292,14.29686 v 3.04688 l -3.43749,3.41145 h -6.27604 l -6.90104,-6.90103 v -13.85416 l 6.90104,-6.90104 h 4.60937 v 21.1979 z m 36.71873,-14.29686 h -5.10416 v -6.90104 h 9.71354 l 6.90103,6.90104 V 303.153 l -6.90103,6.95312 H 585.9124 l -3.46354,-3.48958 v -2.55209 h 14.03645 z m -1.82291,14.29686 v 3.04688 l -3.4375,3.41145 h -6.27604 l -6.90104,-6.90103 v -13.85416 l 6.90104,-6.90104 h 4.60937 v 21.1979 z m 29.79165,6.45833 h -4.60938 l -6.90103,-6.90103 v -13.85416 l 6.90103,-6.90104 h 4.60938 z m 1.82291,-11.09374 v -4.81771 h 6.06771 v -4.84374 h -6.06771 v -6.90104 h 9.76562 l 6.90104,6.90104 v 9.66145 z m 0,11.09374 v -6.45833 h 15.46874 v 2.99479 l -3.43749,3.46354 z m 27.57811,-27.65623 h 4.60937 v 9.76562 h 13.125 l 5.98958,6.04166 v 5.39062 l -6.43229,6.45833 h -5.07812 v -10.4427 H 653.6207 l -5.98958,-5.7552 v -5.26042 z m 5.28646,22.57811 h 5.10416 v 5.07812 l -11.84895,-0.026 -4.79166,-5.67708 V 292.502 h 11.53645 z m 6.92708,-17.49999 h -5.78125 v -5.07812 h 12.23958 l 4.11458,4.11458 v 3.125 h -10.57291 z m 27.8385,15.67708 h 7.60416 v 6.90103 h -12.18749 l -6.92708,-6.90103 v -13.85416 h -2.29166 v -6.90104 h 2.29166 v -2.99479 l 11.51041,-3.90625 z m 1.82292,-13.85416 v -6.90104 h 6.19791 v 6.90104 z m 35.83331,6.56249 v 14.1927 h -11.51041 v -34.55727 h 11.51041 v 13.69791 h 11.01562 v 6.66666 z m 1.82292,-13.67186 v -6.69271 h 17.99478 v 10 h -10.83333 v -3.30729 z m 0,27.86456 v -6.90103 h 6.48437 v -3.46354 h 11.51041 v 10.36457 z m 32.08331,-27.65623 18.4114,27.65623 h -11.9531 l -18.43746,-27.65623 z m 4.5052,3.82812 1.9531,-3.82812 h 11.9531 l -7.9687,12.76041 z m -4.5052,23.82811 h -11.97916 l 7.68226,-13.17707 6.1719,9.29687 z m 20.7813,9.21875 v -36.87498 h 11.5104 v 36.87498 z m 18.4114,-29.97394 h -5.0781 v -3.48958 l 3.3854,-3.41146 h 6.3021 l 6.9271,6.90104 v 13.85416 l -6.9271,6.90103 h -9.6875 v -6.45833 h 5.0781 z m 34.9479,20.75519 v -20.75519 h -16.3802 v -3.4375 l 3.4635,-3.46354 h 17.2657 l 6.901,6.90104 v 20.75519 z m -1.8229,-16.09374 v 4.79167 h -5.9375 v 4.84374 h 5.9375 v 3.04688 l -3.4375,3.41145 h -8.8021 l -4.6354,-4.55729 v -6.92707 l 4.6354,-4.60938 z m 18.2552,16.09374 v -27.65623 h 11.6146 v 27.65623 z m 18.4375,-20.75519 h -4.9479 v -3.02083 l 3.8541,-3.88021 h 6.4063 l 6.2239,6.22395 v 21.43228 h -11.5364 z m 22.8905,-6.90104 h 4.6094 v 9.76562 h 13.125 l 5.9896,6.04166 v 5.39062 l -6.4323,6.45833 h -5.0781 v -10.4427 h -12.4479 l -5.9896,-5.7552 v -5.26042 z m 5.2865,22.57811 h 5.1042 v 5.07812 l -11.849,-0.026 -4.7917,-5.67708 V 292.502 h 11.5365 z m 6.9271,-17.49999 h -5.7813 v -5.07812 h 12.2396 l 4.1146,4.11458 v 3.125 h -10.5729 z m 16.0417,-5.07812 h 11.5364 v 27.65623 h -11.5364 z m 0,-10.78124 h 11.5364 v 7.34374 h -11.5364 z m 47.8124,31.53644 -6.901,6.90103 h -7.7083 v -6.45833 h 2.8646 v -14.29686 h -2.8646 v -6.90104 h 7.7083 l 6.901,6.90104 z m -19.427,0.4427 h 2.9948 v 6.45833 h -7.7344 l -6.9011,-6.90103 v -13.85416 l 6.9011,-6.90104 h 7.7344 v 6.90104 h -2.9948 z m 24.6093,6.45833 v -27.65623 h 11.6146 v 27.65623 z m 18.4375,-20.75519 h -4.9479 v -3.02083 l 3.8542,-3.88021 h 6.40623 l 6.224,6.22395 v 21.43228 h -11.53653 z"
       id="text5"
       style="font-size:53.3333px;line-height:0;font-family:'Black Ops One';-inkscape-font-specification:'Black Ops One';opacity:0.861314;fill:#008080;fill-opacity:0;stroke:#008080;stroke-width:5.503"
       aria-label="WINDOWKILL's Biggest Expansion" /><text
       xml:space="preserve"
       id="text6"
       style="fill:#008080;-inkscape-font-specification:'Black Ops One';font-family:'Black Ops One';font-size:53.33333333px;stroke-width:5.503;line-height:0;opacity:0.86131387;stroke:#db9352;fill-opacity:0;font-weight:normal;font-style:normal;font-stretch:normal;font-variant:normal;white-space:pre;shape-inside:url(#rect6)" /></g></svg>
